<svg xmlns="http://www.w3.org/2000/svg" width="256" height="256" viewBox="0 0 256 256">
  <rect width="256" height="256" fill="#1a1410"/>
  <rect x="0" y="0" width="80" height="42" rx="2" fill="#2d2520" stroke="#111" stroke-width="1.5"/>
  <rect x="82" y="0" width="80" height="42" rx="2" fill="#2a2218" stroke="#111" stroke-width="1.5"/>
  <rect x="164" y="0" width="92" height="42" rx="2" fill="#2d2520" stroke="#111" stroke-width="1.5"/>
  <rect x="0" y="44" width="42" height="42" rx="2" fill="#28201c" stroke="#111" stroke-width="1.5"/>
  <rect x="44" y="44" width="80" height="42" rx="2" fill="#2d2520" stroke="#111" stroke-width="1.5"/>
  <rect x="126" y="44" width="80" height="42" rx="2" fill="#2a2218" stroke="#111" stroke-width="1.5"/>
  <rect x="208" y="44" width="48" height="42" rx="2" fill="#2d2520" stroke="#111" stroke-width="1.5"/>
  <rect x="0" y="88" width="80" height="42" rx="2" fill="#2a2218" stroke="#111" stroke-width="1.5"/>
  <rect x="82" y="88" width="80" height="42" rx="2" fill="#2d2520" stroke="#111" stroke-width="1.5"/>
  <rect x="164" y="88" width="92" height="42" rx="2" fill="#2a2218" stroke="#111" stroke-width="1.5"/>
  <rect x="0" y="132" width="42" height="42" rx="2" fill="#2d2520" stroke="#111" stroke-width="1.5"/>
  <rect x="44" y="132" width="80" height="42" rx="2" fill="#28201c" stroke="#111" stroke-width="1.5"/>
  <rect x="126" y="132" width="80" height="42" rx="2" fill="#2d2520" stroke="#111" stroke-width="1.5"/>
  <rect x="208" y="132" width="48" height="42" rx="2" fill="#2a2218" stroke="#111" stroke-width="1.5"/>
  <rect x="0" y="176" width="80" height="42" rx="2" fill="#28201c" stroke="#111" stroke-width="1.5"/>
  <rect x="82" y="176" width="80" height="42" rx="2" fill="#2d2520" stroke="#111" stroke-width="1.5"/>
  <rect x="164" y="176" width="92" height="42" rx="2" fill="#28201c" stroke="#111" stroke-width="1.5"/>
  <rect x="0" y="220" width="42" height="36" rx="2" fill="#2d2520" stroke="#111" stroke-width="1.5"/>
  <rect x="44" y="220" width="80" height="36" rx="2" fill="#28201c" stroke="#111" stroke-width="1.5"/>
  <rect x="126" y="220" width="80" height="36" rx="2" fill="#2d2520" stroke="#111" stroke-width="1.5"/>
  <rect x="208" y="220" width="48" height="36" rx="2" fill="#28201c" stroke="#111" stroke-width="1.5"/>
  <rect x="118" y="78" width="6" height="14" rx="1" fill="#8B4513" opacity="0.8"/>
  <ellipse cx="121" cy="76" rx="4" ry="6" fill="#ff6600" opacity="0.85"/>
  <ellipse cx="121" cy="74" rx="2.5" ry="4" fill="#ffcc00" opacity="0.8"/>
  <rect x="118" y="168" width="6" height="14" rx="1" fill="#8B4513" opacity="0.8"/>
  <ellipse cx="121" cy="166" rx="4" ry="6" fill="#ff6600" opacity="0.85"/>
  <ellipse cx="121" cy="164" rx="2.5" ry="4" fill="#ffcc00" opacity="0.8"/>
</svg>