<svg xmlns="http://www.w3.org/2000/svg" width="256" height="256" viewBox="0 0 256 256">
  <rect width="256" height="256" fill="#050a1a"/>
  <circle cx="12" cy="8" r="1.2" fill="#fff" opacity="0.9"/>
  <circle cx="48" cy="22" r="0.8" fill="#fff" opacity="0.7"/>
  <circle cx="80" cy="5" r="1.5" fill="#fff" opacity="0.85"/>
  <circle cx="130" cy="18" r="1" fill="#fff" opacity="0.8"/>
  <circle cx="170" cy="8" r="1.2" fill="#fff" opacity="0.9"/>
  <circle cx="210" cy="14" r="0.9" fill="#fff" opacity="0.7"/>
  <circle cx="245" cy="4" r="1.4" fill="#fff" opacity="0.85"/>
  <circle cx="25" cy="50" r="1" fill="#fff" opacity="0.8"/>
  <circle cx="60" cy="70" r="1.5" fill="#fff" opacity="0.9"/>
  <circle cx="100" cy="45" r="0.8" fill="#fff" opacity="0.7"/>
  <circle cx="145" cy="60" r="1.2" fill="#fff" opacity="0.85"/>
  <circle cx="195" cy="40" r="1" fill="#fff" opacity="0.8"/>
  <circle cx="230" cy="55" r="1.5" fill="#fff" opacity="0.9"/>
  <circle cx="8" cy="100" r="1.2" fill="#fff" opacity="0.75"/>
  <circle cx="42" cy="120" r="0.9" fill="#fff" opacity="0.8"/>
  <circle cx="75" cy="95" r="1.4" fill="#fff" opacity="0.9"/>
  <circle cx="115" cy="110" r="1" fill="#fff" opacity="0.7"/>
  <circle cx="155" cy="90" r="1.2" fill="#fff" opacity="0.85"/>
  <circle cx="200" cy="100" r="0.8" fill="#fff" opacity="0.8"/>
  <circle cx="240" cy="80" r="1.5" fill="#fff" opacity="0.9"/>
  <circle cx="20" cy="160" r="1" fill="#fff" opacity="0.7"/>
  <circle cx="55" cy="175" r="1.3" fill="#fff" opacity="0.85"/>
  <circle cx="90" cy="150" r="0.9" fill="#fff" opacity="0.8"/>
  <circle cx="128" cy="165" r="1.2" fill="#fff" opacity="0.9"/>
  <circle cx="165" cy="145" r="1" fill="#fff" opacity="0.7"/>
  <circle cx="205" cy="155" r="1.4" fill="#fff" opacity="0.85"/>
  <circle cx="245" cy="130" r="0.8" fill="#fff" opacity="0.75"/>
  <circle cx="10" cy="210" r="1.2" fill="#fff" opacity="0.8"/>
  <circle cx="50" cy="230" r="1" fill="#fff" opacity="0.9"/>
  <circle cx="85" cy="200" r="1.5" fill="#fff" opacity="0.7"/>
  <circle cx="120" cy="220" r="0.9" fill="#fff" opacity="0.85"/>
  <circle cx="160" cy="200" r="1.2" fill="#fff" opacity="0.8"/>
  <circle cx="200" cy="215" r="1" fill="#fff" opacity="0.9"/>
  <circle cx="238" cy="195" r="1.4" fill="#fff" opacity="0.7"/>
  <ellipse cx="64" cy="128" rx="50" ry="40" fill="#3a1a6a" opacity="0.3"/>
  <ellipse cx="190" cy="160" rx="45" ry="35" fill="#1a3a6a" opacity="0.25"/>
  <ellipse cx="180" cy="70" rx="12" ry="5" fill="#a8a0ff" opacity="0.3" transform="rotate(-30,180,70)"/>
</svg>