<svg xmlns="http://www.w3.org/2000/svg" width="64" height="64" viewBox="0 0 64 64">
  <!-- Alien: classic green alien with big eyes -->
  <line x1="24" y1="12" x2="18" y2="2" stroke="#4caf50" stroke-width="2"/>
  <circle cx="17" cy="1" r="3" fill="#a5d6a7"/>
  <line x1="40" y1="12" x2="46" y2="2" stroke="#4caf50" stroke-width="2"/>
  <circle cx="47" cy="1" r="3" fill="#a5d6a7"/>
  <ellipse cx="32" cy="26" rx="18" ry="22" fill="#4caf50"/>
  <ellipse cx="32" cy="18" rx="12" ry="10" fill="#66bb6a" opacity="0.5"/>
  <ellipse cx="24" cy="26" rx="8" ry="9" fill="#000"/>
  <ellipse cx="40" cy="26" rx="8" ry="9" fill="#000"/>
  <ellipse cx="24" cy="26" rx="5.5" ry="6.5" fill="#1a237e"/>
  <ellipse cx="40" cy="26" rx="5.5" ry="6.5" fill="#1a237e"/>
  <circle cx="22" cy="24" r="2.5" fill="#fff" opacity="0.7"/>
  <circle cx="38" cy="24" r="2.5" fill="#fff" opacity="0.7"/>
  <path d="M 27 38 Q 32 40 37 38" fill="none" stroke="#2e7d32" stroke-width="2" stroke-linecap="round"/>
  <circle cx="30" cy="35" r="1.5" fill="#2e7d32"/>
  <circle cx="34" cy="35" r="1.5" fill="#2e7d32"/>
  <ellipse cx="32" cy="54" rx="8" ry="10" fill="#4caf50"/>
  <path d="M 24 48 Q 12 52 10 58" fill="none" stroke="#4caf50" stroke-width="5" stroke-linecap="round"/>
  <path d="M 40 48 Q 52 52 54 58" fill="none" stroke="#4caf50" stroke-width="5" stroke-linecap="round"/>
</svg>