<svg xmlns="http://www.w3.org/2000/svg" width="64" height="64" viewBox="0 0 64 64">
  <!-- Slime: green blobby slime monster -->
  <ellipse cx="18" cy="56" rx="5" ry="8" fill="#4caf50" opacity="0.8"/>
  <ellipse cx="46" cy="58" rx="4" ry="6" fill="#4caf50" opacity="0.8"/>
  <ellipse cx="32" cy="60" rx="3" ry="4" fill="#4caf50" opacity="0.7"/>
  <ellipse cx="32" cy="44" rx="26" ry="20" fill="#66bb6a"/>
  <ellipse cx="32" cy="30" rx="20" ry="18" fill="#4caf50"/>
  <ellipse cx="28" cy="24" rx="8" ry="6" fill="#a5d6a7" opacity="0.5"/>
  <circle cx="25" cy="28" r="6" fill="#fff"/>
  <circle cx="39" cy="28" r="6" fill="#fff"/>
  <circle cx="26" cy="29" r="4" fill="#1b5e20"/>
  <circle cx="40" cy="29" r="4" fill="#1b5e20"/>
  <circle cx="27" cy="30" r="2.5" fill="#111"/>
  <circle cx="41" cy="30" r="2.5" fill="#111"/>
  <circle cx="26" cy="28" r="1.2" fill="#fff" opacity="0.8"/>
  <circle cx="40" cy="28" r="1.2" fill="#fff" opacity="0.8"/>
  <path d="M 24 38 Q 32 44 40 38" fill="none" stroke="#2e7d32" stroke-width="2.5" stroke-linecap="round"/>
  <circle cx="18" cy="46" r="3" fill="#81c784" opacity="0.5"/>
  <circle cx="46" cy="48" r="2.5" fill="#81c784" opacity="0.5"/>
  <circle cx="38" cy="52" r="2" fill="#81c784" opacity="0.4"/>
</svg>