<svg xmlns="http://www.w3.org/2000/svg" width="64" height="64" viewBox="0 0 64 64">
  <!-- Ghost: white floating ghost -->
  <path d="M 12 30 Q 12 10 32 8 Q 52 10 52 30 L 52 56 Q 46 50 40 56 Q 36 50 32 56 Q 28 50 24 56 Q 18 50 12 56 Z" fill="#e8e8f8" opacity="0.92"/>
  <ellipse cx="24" cy="28" rx="5" ry="6" fill="#222"/>
  <ellipse cx="40" cy="28" rx="5" ry="6" fill="#222"/>
  <circle cx="22" cy="26" r="2" fill="#fff" opacity="0.6"/>
  <circle cx="38" cy="26" r="2" fill="#fff" opacity="0.6"/>
  <ellipse cx="32" cy="38" rx="6" ry="5" fill="#6644aa" opacity="0.8"/>
  <ellipse cx="32" cy="38" rx="4" ry="3.5" fill="#3322aa" opacity="0.9"/>
  <circle cx="32" cy="30" r="24" fill="#a080ff" opacity="0.1"/>
  <path d="M 12 56 Q 16 50 20 56 Q 24 62 28 56 Q 32 50 36 56 Q 40 62 44 56 Q 48 50 52 56" fill="none" stroke="#e8e8f8" stroke-width="2" opacity="0.7"/>
</svg>