<svg xmlns="http://www.w3.org/2000/svg" width="64" height="64" viewBox="0 0 64 64">
  <!-- Cat: orange tabby -->
  <polygon points="16,20 10,6 24,14" fill="#e8884a"/>
  <polygon points="48,20 54,6 40,14" fill="#e8884a"/>
  <polygon points="17,19 12,9 23,15" fill="#ffb080" opacity="0.8"/>
  <polygon points="47,19 52,9 41,15" fill="#ffb080" opacity="0.8"/>
  <circle cx="32" cy="26" r="18" fill="#e8884a"/>
  <line x1="28" y1="10" x2="26" y2="18" stroke="#c06830" stroke-width="1.5" opacity="0.7"/>
  <line x1="32" y1="9" x2="32" y2="17" stroke="#c06830" stroke-width="1.5" opacity="0.7"/>
  <line x1="36" y1="10" x2="38" y2="18" stroke="#c06830" stroke-width="1.5" opacity="0.7"/>
  <ellipse cx="24" cy="24" rx="5" ry="6" fill="#90ee90"/>
  <ellipse cx="40" cy="24" rx="5" ry="6" fill="#90ee90"/>
  <ellipse cx="24" cy="25" rx="2" ry="5" fill="#111"/>
  <ellipse cx="40" cy="25" rx="2" ry="5" fill="#111"/>
  <circle cx="22" cy="22" r="1.2" fill="#fff" opacity="0.8"/>
  <circle cx="38" cy="22" r="1.2" fill="#fff" opacity="0.8"/>
  <polygon points="32,31 30,33 34,33" fill="#e06090"/>
  <path d="M 30 33 Q 27 37 24 35" fill="none" stroke="#c04070" stroke-width="1.2"/>
  <path d="M 34 33 Q 37 37 40 35" fill="none" stroke="#c04070" stroke-width="1.2"/>
  <line x1="32" y1="32" x2="8" y2="28" stroke="#c06830" stroke-width="0.8" opacity="0.6"/>
  <line x1="32" y1="33" x2="8" y2="36" stroke="#c06830" stroke-width="0.8" opacity="0.6"/>
  <line x1="32" y1="32" x2="56" y2="28" stroke="#c06830" stroke-width="0.8" opacity="0.6"/>
  <line x1="32" y1="33" x2="56" y2="36" stroke="#c06830" stroke-width="0.8" opacity="0.6"/>
  <ellipse cx="32" cy="52" rx="14" ry="10" fill="#e8884a"/>
  <path d="M 46 52 Q 58 48 56 40 Q 54 34 50 38" fill="none" stroke="#e8884a" stroke-width="5" stroke-linecap="round"/>
</svg>