<svg xmlns="http://www.w3.org/2000/svg" width="64" height="64" viewBox="0 0 64 64">
  <!-- Robot: gray/blue boxy body -->
  <line x1="32" y1="4" x2="32" y2="12" stroke="#aaa" stroke-width="2"/>
  <circle cx="32" cy="4" r="3" fill="#ff0"/>
  <rect x="18" y="12" width="28" height="20" rx="3" fill="#5a6a7a" stroke="#4a5a6a" stroke-width="1.5"/>
  <circle cx="26" cy="22" r="4" fill="#000"/>
  <circle cx="38" cy="22" r="4" fill="#000"/>
  <circle cx="26" cy="22" r="2.5" fill="#00e5ff"/>
  <circle cx="38" cy="22" r="2.5" fill="#00e5ff"/>
  <rect x="22" y="27" width="20" height="3" rx="1" fill="#333"/>
  <line x1="26" y1="27" x2="26" y2="30" stroke="#555" stroke-width="1"/>
  <line x1="30" y1="27" x2="30" y2="30" stroke="#555" stroke-width="1"/>
  <line x1="34" y1="27" x2="34" y2="30" stroke="#555" stroke-width="1"/>
  <line x1="38" y1="27" x2="38" y2="30" stroke="#555" stroke-width="1"/>
  <rect x="16" y="32" width="32" height="20" rx="3" fill="#6a7a8a" stroke="#4a5a6a" stroke-width="1.5"/>
  <rect x="22" y="36" width="20" height="10" rx="2" fill="#3a4a5a"/>
  <circle cx="27" cy="41" r="3" fill="#ff4444"/>
  <circle cx="37" cy="41" r="3" fill="#44ff44"/>
  <rect x="6" y="32" width="10" height="16" rx="3" fill="#6a7a8a" stroke="#4a5a6a" stroke-width="1"/>
  <rect x="48" y="32" width="10" height="16" rx="3" fill="#6a7a8a" stroke="#4a5a6a" stroke-width="1"/>
  <rect x="20" y="52" width="10" height="10" rx="2" fill="#5a6a7a" stroke="#4a5a6a" stroke-width="1"/>
  <rect x="34" y="52" width="10" height="10" rx="2" fill="#5a6a7a" stroke="#4a5a6a" stroke-width="1"/>
</svg>