<svg xmlns="http://www.w3.org/2000/svg" width="64" height="64" viewBox="0 0 64 64">
  <!-- Wizard: blue robe, pointy hat, magic staff -->
  <rect x="50" y="10" width="3" height="44" rx="1" fill="#8B4513"/>
  <circle cx="51.5" cy="9" r="5" fill="#9b59b6"/>
  <circle cx="51.5" cy="9" r="3" fill="#e056ff" opacity="0.8"/>
  <polygon points="32,4 16,28 48,28" fill="#1a2a8a"/>
  <rect x="12" y="26" width="40" height="8" rx="2" fill="#2a3aaa"/>
  <text x="26" y="22" font-size="8" fill="#ffd700" opacity="0.9">&#x2605;</text>
  <text x="34" y="16" font-size="6" fill="#ffd700" opacity="0.8">&#x2726;</text>
  <circle cx="32" cy="38" r="10" fill="#f5d5a0"/>
  <ellipse cx="32" cy="46" rx="8" ry="6" fill="#ddd"/>
  <circle cx="28" cy="36" r="2.5" fill="#333"/>
  <circle cx="36" cy="36" r="2.5" fill="#333"/>
  <circle cx="27" cy="35" r="1" fill="#fff"/>
  <circle cx="35" cy="35" r="1" fill="#fff"/>
  <ellipse cx="32" cy="40" rx="2" ry="1.5" fill="#e0b090"/>
  <polygon points="18,48 14,64 50,64 46,48 32,52" fill="#1a2a8a"/>
  <rect x="18" y="48" width="28" height="4" fill="#2a3aaa"/>
  <text x="24" y="60" font-size="7" fill="#ffd700" opacity="0.7">&#x2605;</text>
  <text x="36" y="60" font-size="7" fill="#ffd700" opacity="0.7">&#x2726;</text>
</svg>